<svg xmlns="http://www.w3.org/2000/svg" viewBox="0 0 110 26"><title>资源 2</title><path d="M12.32,6.09c.49-.87.83-1.55,1.25-2.18a1,1,0,0,1,.72-.27c3.22,0,6.44,0,9.66,0a1.4,1.4,0,0,1,1,.56q2.46,4.1,4.83,8.26a1.16,1.16,0,0,1,0,.93c-.32.68-.75,1.32-1.18,2.05-1.69-2.92-3.32-5.71-4.9-8.51a1.46,1.46,0,0,0-1.49-.88C19,6.11,15.81,6.09,12.32,6.09Z"/><path d="M17.5,20a17.53,17.53,0,0,1-1.13,1.94,1.33,1.33,0,0,1-1,.41c-3.14,0-6.29,0-9.43,0a1.43,1.43,0,0,1-1.06-.6C3.27,19,1.67,16.19.08,13.39a1,1,0,0,1,0-.8c.32-.66.71-1.28,1.14-2,1.25,2.13,2.45,4.18,3.66,6.22.6,1,1,2.41,1.9,2.93s2.33.18,3.53.19h5.94C16.63,19.91,17,20,17.5,20Z"/><path d="M10.12,18.67c-1.93.4-3-.06-3.87-1.78-1.15-2.38-2.67-4.6-4-6.92a1.36,1.36,0,0,1,0-1.18C3.82,6,5.42,3.32,7,.62A1.51,1.51,0,0,1,8,.05a17.11,17.11,0,0,1,2.19,0L8.14,3.59c-1,1.66-1.92,3.33-2.93,5a1.33,1.33,0,0,0,0,1.6c1.5,2.45,2.92,4.94,4.37,7.43C9.75,17.91,9.9,18.25,10.12,18.67Z"/><path d="M19.81,7.49c1.52-.66,2.62-.34,3.35.91,1.45,2.49,2.87,5,4.36,7.43a1.29,1.29,0,0,1,0,1.52c-1.6,2.67-3.15,5.38-4.76,8a1.48,1.48,0,0,1-1,.56,16.92,16.92,0,0,1-2.18,0l3.05-5.23c.67-1.15,1.31-2.32,2-3.44a1.17,1.17,0,0,0,0-1.41c-1.53-2.55-3-5.12-4.52-7.69C20.05,8,19.94,7.73,19.81,7.49Z"/><path d="M23.89,2.45c-3.44,0-6.66,0-9.88,0a1.43,1.43,0,0,0-1.47.85C11.16,5.76,9.71,8.2,8.28,10.66c-.19.32-.4.64-.68,1.1-.46-.76-.89-1.38-1.22-2a1,1,0,0,1,.07-.83C8,6.11,9.62,3.35,11.26.61a1.38,1.38,0,0,1,1-.57c3.19,0,6.37,0,9.56,0a1.6,1.6,0,0,1,1.06.6A13.25,13.25,0,0,1,23.89,2.45Z"/><path d="M6,23.6c.5,0,.84-.05,1.18-.05,2.83,0,5.66,0,8.49,0a1.7,1.7,0,0,0,1.76-1c1.55-2.78,3.19-5.5,4.89-8.4a22.51,22.51,0,0,1,1.2,2.07,1.27,1.27,0,0,1-.16.95C21.77,20,20.19,22.7,18.57,25.4a1.21,1.21,0,0,1-.9.51q-4.83.06-9.67,0a1.23,1.23,0,0,1-.86-.42A19.33,19.33,0,0,1,6,23.6Z"/><path d="M61.84,14.21H57.09v-1.8h7V20.8c-1.27.45-1.27.45-1.92-1.59a13.63,13.63,0,0,1-2.49,1.46C54.59,22.45,49.59,20,49.29,14c-.18-3.58.64-6.87,4.25-8.69,3.18-1.61,7.51-.67,9.33,2a14.28,14.28,0,0,1,1,2.27c-1.83.4-1.95.35-2.71-1-1.6-2.83-6.5-3-8.29-.18a8.65,8.65,0,0,0-.4,8.81c1,2,3.69,2.84,6.19,2.07C60.9,18.6,62.05,16.8,61.84,14.21Z"/><path d="M101.4,19c-.91-1.88-1.74-3.56-2.52-5.27-.12-.27,0-.66.07-1H98v-1.9l3.71.2V8H97.36V6.19h4.37V2.9l2.29.25-.44,3h6V8h-5.83v3H108a22.45,22.45,0,0,1-3.83,7.78A13,13,0,0,0,110,20.88l-1.23,2-6-2.72c-1.38.76-2.9,1.56-4.39,2.42-.75.43-1.33.52-1.83-.33a3.69,3.69,0,0,0-.75-.72Zm1.12-1.44.47,0,2.66-4.83h-5.52Z"/><path d="M34,5.1c2.22-.47,2.56-.34,3.58,1.21L40.71,11,41.8,9.46,44.18,6c.78-1.15,1.69-1.4,3.21-.79-1.52,2.16-3,4.35-4.55,6.42a1.57,1.57,0,0,0,0,2.25c1.58,2.1,3,4.29,4.56,6.44.11.16.19.35.29.53-2,.51-2.49.33-3.54-1.24l-3.49-5.12-3.52,5.21c-1,1.47-1.44,1.62-3.46,1.13l5.7-8.06Z"/><path d="M67.36,11V9.17h4.11V5.9l-2.57.41L68,4.62c1.1-.12,2.1-.21,3.1-.36s2.3-.37,3.43-.64c1.62-.39,1.83-.3,2.4,1.4l-3.68.52v3.6H76.4v1.69H73.21V22.51H71.43V13.68l-3.3,5.08-1.31-1.68a15.82,15.82,0,0,0,4.29-6.29Z"/><path d="M89.69,7.68l3.3.21V3l2,.29c-.11,1.56-.22,3-.32,4.48h2.13V9.64l-2-.13v3.22l2.5-.73.2,1.65a17.52,17.52,0,0,1-1.81.61,1.09,1.09,0,0,0-1,1.3c.07,1.75,0,3.5,0,5.25A2.44,2.44,0,0,1,92,23a.67.67,0,0,1-.37-.31c-.21-.51-.38-1-.56-1.56,2.36-.21,2,.08,2-2.26,0-1.22,0-2.45,0-3.82l-3.15,1-.5-1.87c1-.22,1.91-.48,2.86-.64.62-.1.83-.35.8-1,0-1,0-1.94,0-3H89.69Z"/><path d="M82.58,3l2.15.22c-.06,2.05-.13,4-.15,5.85s0,3.83,0,5.85l2.71-.34.22,1.78-2.84.24v6.26H82.55v-6l-6.44.8V15.74l6.47-.62Z"/><path d="M79.88,9.41l-2.2-3.28,1.56-.86L81.59,8.4Z"/><path d="M77.34,11.33c1.73-1.09,1.3-1.06,2.56.33a18.91,18.91,0,0,1,1.22,1.7l-1.68.86Z"/><path d="M73.25,13l1.32-1,2.05,2.55-1.57,1.1Z"/></svg>